<svg id="visual" viewBox="0 0 960 540" width="960" height="540" xmlns="http://www.w3.org/2000/svg" xmlns:xlink="http://www.w3.org/1999/xlink" version="1.1"><path d="M0 383L16 367.3C32 351.7 64 320.3 96 317.3C128 314.3 160 339.7 192 361.7C224 383.7 256 402.3 288 419.2C320 436 352 451 384 441C416 431 448 396 480 366.2C512 336.3 544 311.7 576 317.3C608 323 640 359 672 372C704 385 736 375 768 378.7C800 382.3 832 399.7 864 408.8C896 418 928 419 944 419.5L960 420" fill="none" stroke-linecap="round" stroke-linejoin="miter" stroke="#0066FF" stroke-width="4"></path></svg>