<svg id="visual" viewBox="0 0 960 540" width="960" height="540" xmlns="http://www.w3.org/2000/svg" xmlns:xlink="http://www.w3.org/1999/xlink" version="1.1"><path d="M0 357L10.7 358.7C21.3 360.3 42.7 363.7 64 351.8C85.3 340 106.7 313 128 322.7C149.3 332.3 170.7 378.7 192 397.8C213.3 417 234.7 409 256 395.5C277.3 382 298.7 363 320 343.3C341.3 323.7 362.7 303.3 384 306.3C405.3 309.3 426.7 335.7 448 353.3C469.3 371 490.7 380 512 371.8C533.3 363.7 554.7 338.3 576 339.8C597.3 341.3 618.7 369.7 640 386.5C661.3 403.3 682.7 408.7 704 411.2C725.3 413.7 746.7 413.3 768 391.3C789.3 369.3 810.7 325.7 832 311.7C853.3 297.7 874.7 313.3 896 329.8C917.3 346.3 938.7 363.7 949.3 372.3L960 381" fill="none" stroke-linecap="round" stroke-linejoin="miter" stroke="#0066FF" stroke-width="4"></path></svg>